<svg version="1.2" xmlns="http://www.w3.org/2000/svg" viewBox="0 0 500 500" width="500" height="500">
	<title>Novo Projeto</title>
	<style>
		.s0 { fill: #84dbff } 
		.s1 { fill: #3addbe } 
		.s2 { fill: #f8cf26 } 
		.s3 { fill: #f78b28 } 
		.s4 { fill: #ffffff } 
		.s5 { fill: #000000 } 
	</style>
	<path fill-rule="evenodd" class="s0" d="m230.4 494c-112 0-202.6-93.3-202.6-208.8 0-115.4 90.6-208.7 202.6-208.7 112 0 202.5 93.3 202.5 208.7 0 115.5-90.5 208.8-202.5 208.8z"/>
	<g>
		<g id="techincian-customer-service-man-avatar-engineer_1_">
			<path class="s1" d="m255.9 411.8c0 9.1 7.3 16.4 16.4 16.4h10.9c9 0 16.4-7.3 16.4-16.4v-21.8h-43.7z"/>
			<path class="s2" d="m348.7 182.5c0-3.7-0.4-7.4-0.9-10.9h-20.9c-15.1 0-27.3-12.3-27.3-27.3v-29.3c-5.2-1.7-10.7-2.8-16.4-3.2v59.8h-10.9v-59.8c-5.7 0.4-11.2 1.5-16.4 3.2v29.3c0 15-12.3 27.3-27.3 27.3h-20.9c-0.6 3.5-1 7.2-1 10.9v5.5h142v-5.5z"/>
			<path class="s3" d="m326.9 248v-32.2c-14.5 3.3-32.1 4.9-49.2 4.9-17 0-34.6-1.6-49.1-4.9v32.2c0 27.1 22 49.2 49.1 49.2 27.1 0 49.2-22.1 49.2-49.2zm-49.2 27.3c15.1 0 27.3-12.2 27.3-27.3h11c0 21.1-17.2 38.2-38.3 38.2z"/>
			<path class="s2" d="m97.5 242.6v-25.7c-6 6.6-10.9 15.6-10.9 25.7 0 15.6 9.4 29.5 23.9 35.4 2.1 0.8 3.4 2.8 3.4 5v79.7h21.9v-79.7c0-2.2 1.3-4.2 3.4-5 14.5-5.8 23.9-19.7 23.9-35.4 0-10.1-5-19.1-11-25.7v25.7c0 3-2.4 5.4-5.4 5.4h-43.7c-3 0-5.5-2.4-5.5-5.4z"/>
			<path class="s2" d="m342.6 198.9h-129.8c9.9 5.1 31.6 10.9 64.9 10.9 33.3 0 55.1-5.8 64.9-10.9z"/>
			<path fill-rule="evenodd" class="s3" d="m108.5 373.6h-5.5v10.9h10.9v10.9h-10.9v11h10.9v10.9h-10.9v10.9h43.7v-32.8-21.8h-5.5z"/>
			<path fill-rule="evenodd" class="s3" d="m184.9 400.9v27.3h-27.3v-27.3z"/>
			<path class="s1" d="m223.1 315.2c-15.7 4.7-27.3 19.3-27.3 36.6v43.6 19.6l27.3-27.3z"/>
			<path class="s2" d="m245 144.3v-24.7c-16.4 8.5-29 23.2-34.8 41h18.4c9 0 16.4-7.3 16.4-16.3z"/>
			<path fill-rule="evenodd" class="s1" d="m299.6 313.5v43.7h-43.7v-43.7z"/>
			<path class="s1" d="m359.6 351.8c0-17.3-11.5-31.9-27.3-36.6v72.5l27.3 27.3z"/>
			<path class="s2" d="m326.9 160.6h18.3c-5.7-17.8-18.4-32.5-34.7-41v24.7c0 9 7.3 16.3 16.4 16.3z"/>
			<path fill-rule="evenodd" class="s4" d="m190.4 439.1v-10.9l38.2-38.2v-81.9h21.8v109.2l10.9 16.4h32.8l10.9-11v-114.6h21.9v81.9l38.2 38.2v10.9z"/>
			<path fill-rule="evenodd" class="s4" d="m316 362.7v21.8h-76.5v-21.8z"/>
			<path class="s5" d="m316 297.2h-18.9c20.8-9.5 35.2-30.4 35.2-54.6v-35.3c13.2-4.5 21.9-10.9 21.9-19.3v-11c0-43.3-33.9-78.8-76.5-81.6v-11.2h-10.9v11.2c-42.6 2.8-76.4 38.3-76.4 81.6v10.9c0 8.5 8.7 14.9 21.8 19.4v35.3c0 24.2 14.5 45.1 35.2 54.6h-18.8c-27.1 0-49.2 22-49.2 49.1v38.2h-27.3v-21.8c0-3-2.4-5.5-5.4-5.5h-5.5v-76.1c16.7-8.1 27.3-25 27.3-44 0-18.8-12.5-34.2-24.2-42.3-1.6-1.1-3.8-1.3-5.6-0.3-1.8 0.9-2.9 2.8-2.9 4.8v32.3h-32.8v-32.3c0-2-1.1-3.9-2.9-4.8-1.8-1-4-0.8-5.7 0.3-11.7 8.1-24.2 23.5-24.2 42.3 0 18.8 10.6 35.7 27.3 44v76.1h-5.4c-3 0-5.5 2.5-5.5 5.5v65.5c0 3 2.5 5.5 5.5 5.5h54.6 32.7 5.5 5.5v-5.5-3.2l36.6-36.6c1-1 1.6-2.4 1.6-3.9v-76.4h10.9v49.1c0 3 2.5 5.5 5.5 5.5h54.6c3 0 5.4-2.5 5.4-5.5v-49.1h11v76.4c0 1.5 0.5 2.9 1.6 3.9l36.6 36.6v8.7h10.9v-87.4c0-27.1-22.1-49.1-49.1-49.1zm-43.7-92.9c-33.3 0-55.1-5.8-64.9-10.9h129.8c-9.8 5.1-31.6 10.9-64.9 10.9zm5.4-38.2v-59.8c5.7 0.5 11.2 1.5 16.4 3.2v29.3c0 15.1 12.3 27.3 27.3 27.3h20.9c0.6 3.6 1 7.2 1 10.9v5.5h-142v-5.5c0-3.7 0.4-7.3 0.9-10.9h20.9c15.1 0 27.3-12.2 27.3-27.3v-29.3c5.2-1.7 10.7-2.7 16.4-3.2v59.8zm62.1-10.9h-18.4c-9 0-16.4-7.4-16.4-16.4v-24.7c16.4 8.6 29 23.3 34.8 41.1zm-100.3-41.1v24.7c0 9-7.4 16.4-16.4 16.4h-18.4c5.8-17.8 18.4-32.5 34.8-41.1zm-16.4 128.5v-32.3c14.5 3.3 32.1 5 49.2 5 17 0 34.6-1.7 49.1-5v32.3c0 27.1-22.1 49.1-49.1 49.1-27.1 0-49.2-22-49.2-49.1zm-118.1 29.9c-14.5-5.9-23.9-19.8-23.9-35.4 0-10 5-19 11-25.7v25.7c0 3 2.4 5.5 5.4 5.5h43.7c3 0 5.5-2.5 5.5-5.5v-25.7c6 6.7 10.9 15.7 10.9 25.7 0 15.8-9.4 29.7-23.9 35.4-2.1 0.8-3.4 2.8-3.4 5.1v79.6h-21.9v-79.6c0-2.3-1.3-4.2-3.4-5.1zm-7.5 139.3h10.9v-10.9h-10.9v-10.9h10.9v-10.9h-10.9v-11h5.5 32.7 5.5v21.9 32.7h-43.7zm81.9 11h-27.3v-27.3h27.3c0 0 0 27.3 0 27.3zm38.2-40.5l-27.3 27.3v-19.6-43.7c0-17.3 11.6-31.9 27.3-36.6zm76.5-30.5h-43.7v-43.7h43.7zm32.8 30.5v-72.6c15.7 4.8 27.3 19.4 27.3 36.7v63.2z"/>
			<path class="s5" d="m310.5 242.6h-10.9c0 15-12.3 27.3-27.3 27.3v10.9c21 0 38.2-17.2 38.2-38.2z"/>
			<path class="s5" d="m299.6 373.6h-54.6c-3 0-5.5 2.4-5.5 5.5v27.3c0 15 12.3 27.3 27.3 27.3h10.9c15.1 0 27.3-12.3 27.3-27.3v-27.3c0-3.1-2.4-5.5-5.4-5.5zm-5.5 32.8c0 9-7.3 16.3-16.4 16.3h-10.9c-9 0-16.4-7.3-16.4-16.3v-21.9h43.7z"/>
		</g>
		<g id="Layer_1_28_">
		</g>
	</g>
</svg>