<svg version="1.2" xmlns="http://www.w3.org/2000/svg" viewBox="0 0 508 508" width="508" height="508">
	<title>logistics-delivery-warehouse</title>
	<style>
		.s0 { fill: #84dbff } 
		.s1 { fill: #ffd359 } 
		.s2 { fill: #db9840 } 
		.s3 { fill: #ff5948 } 
		.s4 { fill: #cca38d } 
		.s5 { fill: #a68472 } 
		.s6 { fill: #d44a3c } 
		.s7 { fill: #5e5456 } 
		.s8 { fill: #8a6d5e } 
		.s9 { fill: #968789 } 
		.s10 { fill: #7d7072 } 
	</style>
	<path fill-rule="evenodd" class="s0" d="m250 450.7c-119.4 0-215.9-91.7-215.9-205 0-113.4 96.5-205.1 215.9-205.1 119.4 0 215.9 91.7 215.9 205.1 0 113.3-96.5 205-215.9 205z"/>
	<path class="s1" d="m325.8 222.1h-103.7c-1.7 0-3.1-1.4-3.1-3.1v-74.9h110v74.9c0 1.7-1.4 3.1-3.2 3.1z"/>
	<path class="s2" d="m219 144.1v74.9c0 1.7 1.4 3.1 3.1 3.1h12.5v-78c0 0-15.6 0-15.6 0z"/>
	<path class="s3" d="m257.1 201h-10.8c-1.3 0-2.3-1.1-2.3-2.4v-10.8c0-1.3 1-2.3 2.3-2.3h10.8c1.3 0 2.4 1 2.4 2.3v10.8c0 1.3-1.1 2.4-2.4 2.4z"/>
	<path class="s4" d="m187.1 216.6v100.1c0 0.9-0.7 1.6-1.5 1.6h-96.3c-0.9 0-1.6-0.7-1.6-1.6v-100.1c0-0.9 0.7-1.6 1.6-1.6h96.3c0.8 0 1.5 0.7 1.5 1.6z"/>
	<path class="s5" d="m103.4 316.7v-100.1c0-0.9 0.7-1.6 1.6-1.6h-15.7c-0.9 0-1.6 0.7-1.6 1.6v100.1c0 0.9 0.7 1.6 1.6 1.6h15.7c-0.9 0-1.6-0.7-1.6-1.6z"/>
	<path class="s4" d="m340.7 224.8v90.4c0 1.7-1.4 3.1-3.1 3.1h-127.3c-1.7 0-3.1-1.4-3.1-3.1v-90.4c0-1.8 1.4-3.2 3.1-3.2h127.3c1.7 0 3.1 1.4 3.1 3.2z"/>
	<path class="s5" d="m207.2 224.7v90.5c0 1.7 1.4 3.1 3.1 3.1h12.3v-96.7h-12.3c-1.7 0-3.1 1.4-3.1 3.1z"/>
	<path class="s3" d="m331.3 167.8h-114.7c-1.7 0-3.1-1.4-3.1-3.1v-22.8c0-1.7 1.4-3.1 3.1-3.1h114.7c1.8 0 3.2 1.4 3.2 3.1v22.8c0 1.7-1.4 3.1-3.2 3.1z"/>
	<path class="s6" d="m213.5 141.9v22.8c0 1.7 1.4 3.1 3.1 3.1h12.5v-29h-12.5c-1.7 0-3.1 1.4-3.1 3.1z"/>
	<g>
		<path class="s7" d="m304 191.4h-29.2c-3.3 0-5.9-2.7-5.9-5.9 0-3.3 2.6-5.9 5.9-5.9h29.2c3.2 0 5.8 2.6 5.8 5.9 0 3.2-2.6 5.9-5.8 5.9z"/>
		<path class="s7" d="m304 206.9h-29.2c-3.3 0-5.9-2.7-5.9-5.9 0-3.3 2.6-5.9 5.9-5.9h29.2c3.2 0 5.8 2.6 5.8 5.9 0 3.2-2.6 5.9-5.8 5.9z"/>
	</g>
	<g>
		<path class="s8" d="m187.1 309.8v6.9c0 0.9-0.7 1.6-1.5 1.6h-6.6l-41.6-43.2-8.1-8.4-41.6-43.2v-6.9c0-0.9 0.7-1.6 1.6-1.6h6.6l41.5 43.2 8.2 8.5z"/>
		<path class="s8" d="m187.1 216.6v6.9l-41.5 43.2-8.2 8.4-41.5 43.2h-6.6c-0.9 0-1.6-0.7-1.6-1.6v-6.9l41.6-43.1 8.1-8.5 41.6-43.2h6.6c0.8 0 1.5 0.7 1.5 1.6z"/>
		<path fill-rule="evenodd" class="s8" d="m340.7 248v11.7h-133.5v-11.7z"/>
		<path fill-rule="evenodd" class="s8" d="m340.7 280.2v11.7h-133.5v-11.7z"/>
	</g>
	<path class="s7" d="m383.3 195.6c-1.5 0-3-0.6-4.2-1.7-2.3-2.3-2.3-6 0-8.3l39.4-39.4c2.3-2.3 6-2.3 8.3 0 2.3 2.3 2.3 6 0 8.3l-39.4 39.4c-1.1 1.1-2.6 1.7-4.1 1.7z"/>
	<path class="s3" d="m383.9 331.1h-15.7c-0.8 0-1.5-0.6-1.5-1.5v-126c0-0.8 0.7-1.5 1.5-1.5h15.7c0.8 0 1.5 0.7 1.5 1.5v126c0 0.9-0.7 1.5-1.5 1.5z"/>
	<path class="s9" d="m400.9 346.7h-330.3c-1.7 0-3.1-1.4-3.1-3.2v-23.4c0-1.8 1.4-3.2 3.1-3.2h330.3c1.7 0 3.1 1.4 3.1 3.2v23.4c0 1.8-1.4 3.2-3.1 3.2z"/>
	<path class="s10" d="m83.1 343.5v-23.4c0-1.8 1.4-3.2 3.2-3.2h-15.7c-1.7 0-3.1 1.4-3.1 3.2v23.4c0 1.8 1.4 3.2 3.1 3.2h15.7c-1.8 0-3.2-1.4-3.2-3.2z"/>
	<path class="s9" d="m389.3 213.2h-26.5c-1.3 0-2.4-1.1-2.4-2.5v-26.4c0-1.4 1.1-2.5 2.4-2.5h26.5c1.3 0 2.4 1.1 2.4 2.5v26.4c0 1.4-1.1 2.5-2.4 2.5z"/>
	<path class="s10" d="m376.1 210.7v-26.4c0-1.4 1.1-2.5 2.4-2.5h-15.7c-1.3 0-2.4 1.1-2.4 2.5v26.4c0 1.4 1.1 2.5 2.4 2.5h15.7c-1.3 0-2.4-1.1-2.4-2.5z"/>
	<path fill-rule="evenodd" class="s3" d="m425.2 162.4c-7.7 0-13.9-6.2-13.9-13.9 0-7.7 6.2-13.9 13.9-13.9 7.6 0 13.9 6.2 13.9 13.9 0 7.7-6.3 13.9-13.9 13.9z"/>
	<g>
		<path fill-rule="evenodd" class="s7" d="m105.6 371.9c-8.7 0-15.7-6.9-15.7-15.6 0-8.7 7-15.7 15.7-15.7 8.6 0 15.6 7 15.6 15.7 0 8.7-7 15.6-15.6 15.6z"/>
		<path fill-rule="evenodd" class="s7" d="m344.9 371.9c-8.7 0-15.7-6.9-15.7-15.6 0-8.7 7-15.7 15.7-15.7 8.6 0 15.6 7 15.6 15.7 0 8.7-7 15.6-15.6 15.6z"/>
	</g>
	<g>
		<path fill-rule="evenodd" class="s3" d="m105.6 362.2c-3.3 0-5.9-2.7-5.9-5.9 0-3.2 2.6-5.9 5.9-5.9 3.2 0 5.9 2.7 5.9 5.9 0 3.2-2.7 5.9-5.9 5.9z"/>
		<path fill-rule="evenodd" class="s3" d="m344.9 362.2c-3.3 0-5.9-2.7-5.9-5.9 0-3.2 2.6-5.9 5.9-5.9 3.2 0 5.8 2.7 5.8 5.9 0 3.2-2.6 5.9-5.8 5.9z"/>
	</g>
	<path class="s7" d="m304.6 337.7h-55.3c-3.3 0-5.9-2.7-5.9-5.9 0-3.2 2.6-5.9 5.9-5.9h55.3c3.2 0 5.8 2.7 5.8 5.9 0 3.2-2.6 5.9-5.8 5.9z"/>
</svg>